<?xml version="1.0" encoding="UTF-8" standalone="no"?>
<!-- Created with Inkscape (http://www.inkscape.org/) -->

<svg
   xmlns:dc="http://purl.org/dc/elements/1.1/"
   xmlns:cc="http://creativecommons.org/ns#"
   xmlns:rdf="http://www.w3.org/1999/02/22-rdf-syntax-ns#"
   xmlns:svg="http://www.w3.org/2000/svg"
   xmlns="http://www.w3.org/2000/svg"
   xmlns:sodipodi="http://sodipodi.sourceforge.net/DTD/sodipodi-0.dtd"
   xmlns:inkscape="http://www.inkscape.org/namespaces/inkscape"
   width="60"
   height="60"
   id="svg4006"
   version="1.1"
   inkscape:version="0.48.4 r9939"
   sodipodi:docname="4q.svg"
   inkscape:export-filename="/home/lazyguy/Desktop/AI-Assignment2-GUI-Design/result/1q.png"
   inkscape:export-xdpi="90"
   inkscape:export-ydpi="90">
  <defs
     id="defs4008" />
  <sodipodi:namedview
     id="base"
     pagecolor="#ffffff"
     bordercolor="#666666"
     borderopacity="1.0"
     inkscape:pageopacity="0.0"
     inkscape:pageshadow="2"
     inkscape:zoom="4"
     inkscape:cx="47.369286"
     inkscape:cy="12.261109"
     inkscape:document-units="px"
     inkscape:current-layer="layer1"
     showgrid="false"
     inkscape:window-width="1366"
     inkscape:window-height="713"
     inkscape:window-x="0"
     inkscape:window-y="0"
     inkscape:window-maximized="1" />
  <metadata
     id="metadata4011">
    <rdf:RDF>
      <cc:Work
         rdf:about="">
        <dc:format>image/svg+xml</dc:format>
        <dc:type
           rdf:resource="http://purl.org/dc/dcmitype/StillImage" />
        <dc:title />
      </cc:Work>
    </rdf:RDF>
  </metadata>
  <g
     inkscape:label="Layer 1"
     inkscape:groupmode="layer"
     id="layer1"
     transform="translate(0,-992.36218)">
    <path
       sodipodi:type="arc"
       style="fill:#ff8080;fill-opacity:1;stroke:#00a6ff;stroke-opacity:0"
       id="path4033"
       sodipodi:cx="17.5"
       sodipodi:cy="23.214285"
       sodipodi:rx="9.6428576"
       sodipodi:ry="9.6428576"
       d="m 27.142858,23.214285 c 0,5.325603 -4.317255,9.642857 -9.642858,9.642857 -5.325603,0 -9.6428576,-4.317254 -9.6428576,-9.642857 0,-5.325603 4.3172546,-9.642858 9.6428576,-9.642858 5.325603,0 9.642858,4.317255 9.642858,9.642858 z"
       transform="matrix(0.49295773,0,0,0.49295773,22.627594,1011.4698)" />
    <text
       xml:space="preserve"
       style="font-size:40px;font-style:normal;font-variant:normal;font-weight:normal;font-stretch:normal;line-height:125%;letter-spacing:0px;word-spacing:0px;fill:#000000;fill-opacity:1;stroke:none;font-family:Courier;-inkscape-font-specification:Courier"
       x="44.95179"
       y="54.696697"
       id="text4543"
       sodipodi:linespacing="125%"
       transform="translate(0,992.36218)"><tspan
         sodipodi:role="line"
         id="tspan4545" /></text>
    <path
       sodipodi:type="arc"
       style="fill:#ff8080;fill-opacity:1;stroke:#00a6ff;stroke-opacity:0"
       id="path4033-3"
       sodipodi:cx="17.5"
       sodipodi:cy="23.214285"
       sodipodi:rx="9.6428576"
       sodipodi:ry="9.6428576"
       d="m 27.142858,23.214285 c 0,5.325603 -4.317255,9.642857 -9.642858,9.642857 -5.325603,0 -9.6428576,-4.317254 -9.6428576,-9.642857 0,-5.325603 4.3172546,-9.642858 9.6428576,-9.642858 5.325603,0 9.642858,4.317255 9.642858,9.642858 z"
       transform="matrix(0.49295773,0,0,0.49295773,6.8732397,999.66852)" />
    <path
       sodipodi:type="arc"
       style="fill:#ff8080;fill-opacity:1;stroke:#00a6ff;stroke-opacity:0"
       id="path4033-7"
       sodipodi:cx="17.5"
       sodipodi:cy="23.214285"
       sodipodi:rx="9.6428576"
       sodipodi:ry="9.6428576"
       d="m 27.142858,23.214285 c 0,5.325603 -4.317255,9.642857 -9.642858,9.642857 -5.325603,0 -9.6428576,-4.317254 -9.6428576,-9.642857 0,-5.325603 4.3172546,-9.642858 9.6428576,-9.642858 5.325603,0 9.642858,4.317255 9.642858,9.642858 z"
       transform="matrix(0.49295773,0,0,0.49295773,30.62324,994.91852)" />
    <path
       sodipodi:type="arc"
       style="fill:#ff8080;fill-opacity:1;stroke:#00a6ff;stroke-opacity:0"
       id="path4033-36"
       sodipodi:cx="17.5"
       sodipodi:cy="23.214285"
       sodipodi:rx="9.6428576"
       sodipodi:ry="9.6428576"
       d="m 27.142858,23.214285 a 9.6428576,9.6428576 0 1 1 -19.2857156,0 9.6428576,9.6428576 0 1 1 19.2857156,0 z"
       transform="matrix(0.49295773,0,0,0.49295773,5.1232397,1024.6685)" />
  </g>
</svg>
